<?xml version="1.0" encoding="iso-8859-1"?>
<!-- Generator: Adobe Illustrator 19.0.0, SVG Export Plug-In . SVG Version: 6.00 Build 0)  -->
<svg version="1.1" id="Layer_1" xmlns="http://www.w3.org/2000/svg" xmlns:xlink="http://www.w3.org/1999/xlink" x="0px" y="0px"
	 viewBox="0 0 512 512" style="enable-background:new 0 0 512 512;" xml:space="preserve">
  <defs>
    <linearGradient id="linear" x1="0%" y1="0%" x2="100%" y2="0%">
      <stop offset="0%"   stop-color="#ff7778"/>
      <stop offset="100%" stop-color="#CF4647"/>
    </linearGradient>
  </defs>
  <style>
  	path{fill:url(#linear)}
  </style>
<g>
	<g>
		<path d="M256,367.699c-13.851,0-25.119,11.268-25.119,25.119c0,13.851,11.268,25.119,25.119,25.119s25.119-11.268,25.119-25.119
			C281.119,378.968,269.851,367.699,256,367.699z M256,401.904c-5.01,0-9.086-4.076-9.086-9.086c0-5.01,4.076-9.086,9.086-9.086
			s9.086,4.076,9.086,9.086C265.086,397.828,261.01,401.904,256,401.904z"/>
	</g>
</g>
<g>
	<g>
		<path d="M76.426,367.699c-13.851,0-25.119,11.268-25.119,25.119c0,13.851,11.268,25.119,25.119,25.119
			s25.119-11.268,25.119-25.119C101.545,378.968,90.277,367.699,76.426,367.699z M76.426,401.904c-5.01,0-9.086-4.076-9.086-9.086
			c0-5.01,4.076-9.086,9.086-9.086s9.086,4.076,9.086,9.086C85.511,397.828,81.436,401.904,76.426,401.904z"/>
	</g>
</g>
<g>
	<g>
		<path d="M503.983,342.046h-9.086v-77.495c0-4.427-3.589-8.017-8.017-8.017h-17.637v-60.392c0-4.427-3.589-8.017-8.017-8.017
			h-60.392v-34.739c0-4.427-3.589-8.017-8.017-8.017h-17.102c-13.851,0-25.119,11.268-25.119,25.119v25.653
			c0,4.427,3.589,8.017,8.017,8.017s8.017-3.589,8.017-8.017v-25.653c0-5.01,4.076-9.086,9.086-9.086h9.086v188.66
			c0,4.427,3.589,8.017,8.017,8.017h103.148v9.086c0,5.01-4.076,9.086-9.086,9.086H366.63V230.347c0-4.427-3.589-8.017-8.017-8.017
			s-8.017,3.589-8.017,8.017v111.699h-9.62v-77.495c0-13.851-11.268-25.119-25.119-25.119h-71.273l-49.962-142.75
			c-5.918-16.911-21.934-28.273-39.85-28.273H76.426c-13.851,0-25.119,11.268-25.119,25.119v145.904H25.119
			C11.268,239.432,0,250.7,0,264.551v119.716c0,4.427,3.589,8.017,8.017,8.017h17.651c-0.002,0.178-0.014,0.355-0.014,0.534
			c0,27.995,22.777,50.772,50.772,50.772c27.995,0,50.772-22.777,50.772-50.772c0-0.18-0.012-0.356-0.014-0.534h78.056
			c-0.002,0.178-0.014,0.355-0.014,0.534c0,27.995,22.777,50.772,50.772,50.772c27.995,0,50.772-22.777,50.772-50.772
			c0-0.18-0.012-0.356-0.014-0.534h180.124c13.851,0,25.119-11.268,25.119-25.119v-17.102
			C512,345.635,508.411,342.046,503.983,342.046z M400.835,204.159h52.376v52.376h-52.376V204.159z M478.864,342.046h-78.029
			v-69.478h78.029V342.046z M28.443,376.251h-12.41v-18.171h23.415C34.595,363.243,30.811,369.416,28.443,376.251z M76.426,427.557
			c-19.155,0-34.739-15.584-34.739-34.739c0-19.155,15.584-34.739,34.739-34.739c19.155,0,34.739,15.584,34.739,34.739
			C111.165,411.973,95.58,427.557,76.426,427.557z M92.994,342.046V289.67h68.944c4.427,0,8.017-3.589,8.017-8.017v-17.102
			c0-13.851-11.268-25.119-25.119-25.119h-17.637v-34.739c0-13.851-11.268-25.119-25.119-25.119h-9.086v-69.478h61.778
			c0.223,0,0.431,0.148,0.505,0.358l37.235,106.386l-22.557-9.024v-11.674c0-4.427-3.589-8.017-8.017-8.017
			s-8.017,3.589-8.017,8.017v17.239c0,0.009,0,0.017,0,0.026v16.94c0,4.427,3.589,8.017,8.017,8.017s8.017-3.589,8.017-8.017v-5.261
			l29.586,11.834l5.688,16.251v88.875H92.994z M119.182,255.466h25.653c5.01,0,9.086,4.076,9.086,9.086v9.086H92.994v-78.029h9.086
			c5.01,0,9.086,4.076,9.086,9.086v42.756C111.165,251.876,114.754,255.466,119.182,255.466z M208.017,376.251h-83.61
			c-2.367-6.835-6.151-13.007-11.005-18.171h105.621C214.169,363.243,210.385,369.416,208.017,376.251z M256,427.557
			c-19.155,0-34.739-15.584-34.739-34.739c0-19.155,15.584-34.739,34.739-34.739s34.739,15.584,34.739,34.739
			C290.739,411.973,275.155,427.557,256,427.557z M221.261,342.046v-90.237c0-0.902-0.153-1.797-0.45-2.649l-50.4-144.002
			c-2.323-6.636-8.608-11.095-15.638-11.095H84.977c-4.427,0-8.017,3.589-8.017,8.017v239.967H16.033v-77.495
			c0-5.01,4.076-9.086,9.086-9.086h34.205c4.427,0,8.017-3.589,8.017-8.017V93.528c0-5.01,4.076-9.086,9.086-9.086h78.347
			c11.113,0,21.045,7.047,24.717,17.536l51.841,148.118c1.126,3.215,4.16,5.368,7.567,5.368h76.96c5.01,0,9.086,4.076,9.086,9.086
			v77.496H221.261z M350.597,376.251H304.1c-0.04,0-0.077,0.005-0.117,0.005c-2.367-6.837-6.151-13.012-11.006-18.177h57.62V376.251
			z"/>
	</g>
</g>
<g>
	<g>
		<path d="M435.574,213.779h-17.102c-4.427,0-8.017,3.589-8.017,8.017s3.589,8.017,8.017,8.017h17.102
			c4.427,0,8.017-3.589,8.017-8.017S440.001,213.779,435.574,213.779z"/>
	</g>
</g>
<g>
	<g>
		<path d="M452.676,290.739h-34.205c-4.427,0-8.017,3.589-8.017,8.017s3.589,8.017,8.017,8.017h34.205
			c4.427,0,8.017-3.589,8.017-8.017S457.104,290.739,452.676,290.739z"/>
	</g>
</g>
<g>
</g>
<g>
</g>
<g>
</g>
<g>
</g>
<g>
</g>
<g>
</g>
<g>
</g>
<g>
</g>
<g>
</g>
<g>
</g>
<g>
</g>
<g>
</g>
<g>
</g>
<g>
</g>
<g>
</g>
</svg>
